<svg width="23" height="28" viewBox="0 0 23 28" fill="none" xmlns="http://www.w3.org/2000/svg">
<path d="M11.8027 1.19739C13.6833 1.19755 15.7208 1.8714 17.2949 3.04211C18.8717 4.21491 20.0292 5.92502 20.0293 8.00012V13.3644C20.0293 14.3144 20.3623 15.2451 20.9072 16.0704C21.3814 16.7885 21.8842 17.6397 22.2695 18.4913C22.6501 19.3324 22.9385 20.2215 22.9385 21.0001C22.9385 21.7334 22.6262 22.3553 22.0703 22.8546C21.5281 23.3415 20.7577 23.7116 19.8154 23.9923C17.9302 24.5539 15.2076 24.8028 11.8027 24.8029H11.8018C8.18563 24.8028 5.30007 24.5538 3.30469 23.9943C2.30802 23.7148 1.49476 23.3478 0.922852 22.8644C0.336634 22.3688 0 21.7442 0 21.0001C2.5785e-05 20.2217 0.30321 19.3372 0.702148 18.5031C1.10651 17.6576 1.63442 16.8121 2.13477 16.0958C2.72659 15.2486 3.09072 14.2773 3.09082 13.2843V8.00012C3.09094 5.91236 4.3277 4.20163 5.99512 3.0343C7.6623 1.86722 9.81695 1.19764 11.8018 1.19739H11.8027ZM11.8018 2.13684C10.0094 2.13709 8.04306 2.74855 6.53418 3.80481C5.0254 4.86116 4.03039 6.3172 4.03027 8.00012V13.2843C4.03017 14.5083 3.58305 15.6637 2.90527 16.6339C2.42308 17.3242 1.92594 18.1249 1.55078 18.9093C1.17027 19.705 0.93948 20.4349 0.939453 21.0001C0.939453 21.4226 1.11757 21.7985 1.5293 22.1466C1.95541 22.5068 2.62366 22.8268 3.55859 23.089C5.42639 23.6127 8.20692 23.8624 11.8018 23.8624C15.184 23.8624 17.7959 23.6125 19.5469 23.0909C20.4223 22.8301 21.0453 22.512 21.4424 22.1554C21.8258 21.811 21.999 21.4335 21.999 21.0001C21.999 20.4237 21.7763 19.6819 21.4131 18.879C21.0546 18.0868 20.58 17.28 20.123 16.588C19.4993 15.6432 19.0898 14.5355 19.0898 13.3644V8.00012C19.0897 6.3043 18.1463 4.84791 16.7334 3.797C15.3179 2.74429 13.4763 2.13684 11.8018 2.13684Z" fill="#F5F2EA"/>
<path d="M15.3802 23.9996C15.5781 23.9996 15.7551 24.1326 15.7808 24.3288C15.7954 24.4399 15.8028 24.5527 15.8029 24.6666L15.797 24.8385C15.6806 26.5995 13.7871 28.0006 11.4689 28.0006L11.2462 27.9957C8.95684 27.9065 7.13616 26.4498 7.13586 24.6666C7.13588 24.5527 7.14337 24.44 7.15794 24.3288C7.18367 24.1326 7.36065 23.9996 7.55854 23.9996C7.87052 23.9996 8.08222 24.3261 8.07656 24.638C8.07638 24.6475 8.0763 24.6571 8.07629 24.6666C8.07644 25.2349 8.37364 25.8135 8.97864 26.2789C9.58472 26.745 10.4621 27.0601 11.4689 27.0602C12.4759 27.0602 13.3539 26.7451 13.9601 26.2789C14.5651 25.8135 14.8623 25.2349 14.8624 24.6666C14.8624 24.6571 14.8623 24.6476 14.8622 24.638C14.8565 24.3261 15.0682 23.9996 15.3802 23.9996Z" fill="#F5F2EA"/>
<path d="M11.4688 0C11.7811 2.14359e-06 12.0843 0.0426288 12.3737 0.122834C13.8603 0.534877 13.0115 2.23535 11.4688 2.23535C9.92611 2.23535 9.0773 0.534861 10.564 0.122826C10.8534 0.042624 11.1565 0 11.4688 0Z" fill="#F5F2EA"/>
</svg>
