<svg width="50" height="50" viewBox="0 0 50 50" fill="none" xmlns="http://www.w3.org/2000/svg">
<rect width="50" height="50" fill="#DD5326"/>
<path d="M48.5119 49H1.48814C1.22373 49 1 48.7763 1 48.5119V1.48814C1 1.22373 1.22373 1 1.48814 1H48.5119C48.7763 1 49 1.22373 49 1.48814V48.5119C49 48.7966 48.7966 49 48.5119 49ZM1.97627 48.0237H48.0441V1.97627H1.97627V48.0237ZM27.4814 43.3254C27.339 43.3254 27.1966 43.2644 27.0949 43.1424L23.0475 37.8949L19 43.1424C18.8373 43.3661 18.5322 43.4068 18.3288 43.2237C18.1254 43.061 18.0847 42.7559 18.2475 42.5525L22.4373 37.1017L18.2475 31.6508C18.0847 31.4475 18.1254 31.122 18.3288 30.9797C18.5322 30.8169 18.8576 30.8576 19 31.061L23.0475 36.3085L27.0949 31.061C27.2576 30.8576 27.5627 30.7966 27.7661 30.9797C27.9695 31.1424 28.0305 31.4475 27.8475 31.6508L23.6576 37.1017L27.8475 42.5525C28.0102 42.7559 27.9695 43.0814 27.7661 43.2237C27.6847 43.2847 27.583 43.3254 27.4814 43.3254ZM36.4102 43.3254C36.1458 43.3254 35.922 43.1017 35.922 42.8373V31.8339H31.9559C31.6915 31.8339 31.4678 31.6102 31.4678 31.3458C31.4678 31.0814 31.6915 30.8576 31.9559 30.8576H40.8644C41.1288 30.8576 41.3525 31.0814 41.3525 31.3458C41.3525 31.6102 41.1288 31.8339 40.8644 31.8339H36.8983V42.8373C36.8983 43.1017 36.6746 43.3254 36.4102 43.3254ZM29.6169 43.3254C29.3525 43.3254 29.1288 43.1017 29.1288 42.8373V31.3458C29.1288 31.0814 29.3525 30.8576 29.6169 30.8576C29.8814 30.8576 30.1051 31.0814 30.1051 31.3458V42.8373C30.1051 43.1017 29.8814 43.3254 29.6169 43.3254ZM16.3966 43.3254H9.13559C8.87119 43.3254 8.64746 43.1017 8.64746 42.8373V31.3458C8.64746 31.0814 8.87119 30.8576 9.13559 30.8576H16.3966C16.661 30.8576 16.8847 31.0814 16.8847 31.3458C16.8847 31.6102 16.661 31.8339 16.3966 31.8339H9.62373V36.5932H16.3966C16.661 36.5932 16.8847 36.8169 16.8847 37.0814C16.8847 37.3458 16.661 37.5695 16.3966 37.5695H9.62373V42.3492H16.3966C16.661 42.3492 16.8847 42.5729 16.8847 42.8373C16.8847 43.1017 16.661 43.3254 16.3966 43.3254ZM40.8644 27.0746H28.7831C28.5186 27.0746 28.2949 26.8508 28.2949 26.5864V23.0678C28.2949 22.8034 28.5186 22.5797 28.7831 22.5797C29.0475 22.5797 29.2712 22.8034 29.2712 23.0678V26.0983H40.3763V7.65085H29.2712V10.5797C29.2712 10.8441 29.0475 11.0678 28.7831 11.0678C28.5186 11.0678 28.2949 10.8441 28.2949 10.5797V7.18305C28.2949 6.91864 28.5186 6.69491 28.7831 6.69491H40.8644C41.1288 6.69491 41.3525 6.91864 41.3525 7.18305V26.5864C41.3729 26.8508 41.1492 27.0746 40.8644 27.0746ZM32.4034 22.4983C32.2814 22.4983 32.1593 22.4576 32.0576 22.3559C31.8746 22.1729 31.8542 21.8678 32.0576 21.6644L33.8881 19.7932H9.13559C8.87119 19.7932 8.64746 19.5695 8.64746 19.3051V14.4237C8.64746 14.1593 8.87119 13.9356 9.13559 13.9356H33.8068L32.0169 12.1864C31.8339 12.0034 31.8136 11.6983 32.0169 11.4949C32.2 11.3119 32.5051 11.2915 32.7085 11.4949L37.8542 16.539C38.0373 16.722 38.0373 17.0271 37.8542 17.2102C37.8542 17.2102 37.8542 17.2102 37.8339 17.2305L36.9797 18.0441L32.7492 22.3559C32.6475 22.4576 32.5254 22.4983 32.4034 22.4983ZM9.62373 18.8373H34.7424L36.2881 17.3525L36.7763 16.8441L34.7424 14.8915H9.62373V18.8373Z" fill="white"/>
</svg>
