<svg width="316" height="316" viewBox="0 0 316 316" fill="none" xmlns="http://www.w3.org/2000/svg">
<g filter="url(#filter0_ii_1_579)">
<path d="M55.1075 264.615C34.3891 243.897 20.2797 217.5 14.5635 188.763C8.84733 160.026 11.7811 130.239 22.9938 103.169C34.2065 76.099 53.1946 52.962 77.5569 36.6836C101.919 20.4053 130.561 11.7167 159.862 11.7167C189.162 11.7168 217.804 20.4053 242.166 36.6836C266.529 52.962 285.517 76.099 296.729 103.169C307.942 130.239 310.876 160.026 305.16 188.763C299.443 217.5 285.334 243.897 264.616 264.615" stroke="#EEF7F9" stroke-width="15.6225" stroke-linecap="round"/>
</g>
<g filter="url(#filter1_dii_1_579)">
<path d="M296.247 102.018C287.715 81.9002 274.837 63.9189 258.538 49.3633C242.238 34.8077 222.92 24.0384 201.969 17.8271C181.018 11.6159 158.952 10.1166 137.353 13.4368C115.754 16.757 95.1572 24.8144 77.0387 37.0315C58.9203 49.2486 43.7289 65.3227 32.5537 84.1017C21.3785 102.881 14.4961 123.899 12.4 145.651C10.3039 167.403 13.0459 189.349 20.4295 209.917C27.8131 230.484 39.6553 249.163 55.1075 264.616" stroke="#FFCD2A" stroke-width="15.6225" stroke-linecap="round"/>
</g>
<defs>
<filter id="filter0_ii_1_579" x="2.60376" y="2.6036" width="314.516" height="271.125" filterUnits="userSpaceOnUse" color-interpolation-filters="sRGB">
<feFlood flood-opacity="0" result="BackgroundImageFix"/>
<feBlend mode="normal" in="SourceGraphic" in2="BackgroundImageFix" result="shape"/>
<feColorMatrix in="SourceAlpha" type="matrix" values="0 0 0 0 0 0 0 0 0 0 0 0 0 0 0 0 0 0 127 0" result="hardAlpha"/>
<feOffset dx="1.30188" dy="1.30188"/>
<feGaussianBlur stdDeviation="1.30188"/>
<feComposite in2="hardAlpha" operator="arithmetic" k2="-1" k3="1"/>
<feColorMatrix type="matrix" values="0 0 0 0 0.0699369 0 0 0 0 0.0699369 0 0 0 0 0.0699369 0 0 0 0.2 0"/>
<feBlend mode="normal" in2="shape" result="effect1_innerShadow_1_579"/>
<feColorMatrix in="SourceAlpha" type="matrix" values="0 0 0 0 0 0 0 0 0 0 0 0 0 0 0 0 0 0 127 0" result="hardAlpha"/>
<feOffset dx="-1.30188" dy="-1.30188"/>
<feGaussianBlur stdDeviation="1.30188"/>
<feComposite in2="hardAlpha" operator="arithmetic" k2="-1" k3="1"/>
<feColorMatrix type="matrix" values="0 0 0 0 1 0 0 0 0 1 0 0 0 0 1 0 0 0 0.6 0"/>
<feBlend mode="normal" in2="effect1_innerShadow_1_579" result="effect2_innerShadow_1_579"/>
</filter>
<filter id="filter1_dii_1_579" x="5.00679e-06" y="-2.6226e-06" width="315.777" height="284.144" filterUnits="userSpaceOnUse" color-interpolation-filters="sRGB">
<feFlood flood-opacity="0" result="BackgroundImageFix"/>
<feColorMatrix in="SourceAlpha" type="matrix" values="0 0 0 0 0 0 0 0 0 0 0 0 0 0 0 0 0 0 127 0" result="hardAlpha"/>
<feOffset dx="3.90563" dy="3.90563"/>
<feGaussianBlur stdDeviation="3.90563"/>
<feComposite in2="hardAlpha" operator="out"/>
<feColorMatrix type="matrix" values="0 0 0 0 0.175312 0 0 0 0 0.175312 0 0 0 0 0.175312 0 0 0 0.2 0"/>
<feBlend mode="normal" in2="BackgroundImageFix" result="effect1_dropShadow_1_579"/>
<feBlend mode="normal" in="SourceGraphic" in2="effect1_dropShadow_1_579" result="shape"/>
<feColorMatrix in="SourceAlpha" type="matrix" values="0 0 0 0 0 0 0 0 0 0 0 0 0 0 0 0 0 0 127 0" result="hardAlpha"/>
<feOffset dx="-1.30188" dy="-1.30188"/>
<feGaussianBlur stdDeviation="1.30188"/>
<feComposite in2="hardAlpha" operator="arithmetic" k2="-1" k3="1"/>
<feColorMatrix type="matrix" values="0 0 0 0 0.77802 0 0 0 0 0.453758 0 0 0 0 0.266027 0 0 0 0.5 0"/>
<feBlend mode="normal" in2="shape" result="effect2_innerShadow_1_579"/>
<feColorMatrix in="SourceAlpha" type="matrix" values="0 0 0 0 0 0 0 0 0 0 0 0 0 0 0 0 0 0 127 0" result="hardAlpha"/>
<feOffset dx="2.60376" dy="2.60376"/>
<feGaussianBlur stdDeviation="2.60376"/>
<feComposite in2="hardAlpha" operator="arithmetic" k2="-1" k3="1"/>
<feColorMatrix type="matrix" values="0 0 0 0 1 0 0 0 0 0.997818 0 0 0 0 0.869103 0 0 0 0.4 0"/>
<feBlend mode="normal" in2="effect2_innerShadow_1_579" result="effect3_innerShadow_1_579"/>
</filter>
</defs>
</svg>
