<svg width="22" height="23" viewBox="0 0 22 23" fill="none" xmlns="http://www.w3.org/2000/svg">
<path d="M0.469971 5.67241C0.469971 1.38236 3.60469 0.50846 5.17204 0.607767L14.4497 0.607767C14.9689 0.607767 14.8897 1.02862 14.8897 1.54777V19.3399C14.8897 20.104 14.0263 20.5488 13.404 20.1053L11.8035 18.9645C11.4176 18.6894 10.8872 18.7446 10.5662 19.0934L8.48848 21.3512C8.07644 21.799 7.35404 21.7432 7.0156 21.2375L5.63472 19.1743C5.37056 18.7796 4.85348 18.6439 4.42958 18.8581L1.83392 20.1698C1.20869 20.4857 0.469971 20.0328 0.469971 19.3323V5.67241Z" stroke="#7C7971" stroke-width="0.94"/>
<path d="M15.8593 0.469727C18.7142 0.469981 21.029 2.78466 21.0292 5.63965V5.98438C21.0289 8.06077 19.3449 9.74414 17.2684 9.74414H14.7587V0.469727H15.8593Z" stroke="#7C7971" stroke-width="0.94"/>
<path d="M7.07886 7.2094H10.083" stroke="#7C7971" stroke-width="0.94" stroke-linecap="round"/>
<path d="M7.07886 11.4152H10.083" stroke="#7C7971" stroke-width="0.94" stroke-linecap="round"/>
<path d="M4.07507 6.42915C4.5063 6.42927 4.85528 6.77916 4.85535 7.2104C4.85535 7.6417 4.50635 7.99154 4.07507 7.99165C3.6437 7.99165 3.29382 7.64177 3.29382 7.2104C3.29389 6.77909 3.64375 6.42915 4.07507 6.42915Z" fill="#7C7971"/>
<path d="M4.07507 10.8147C4.50635 10.8148 4.85535 11.1647 4.85535 11.596C4.85532 12.0272 4.50633 12.3771 4.07507 12.3772C3.64372 12.3772 3.29385 12.0273 3.29382 11.596C3.29382 11.1646 3.6437 10.8147 4.07507 10.8147Z" fill="#7C7971"/>
</svg>
