<svg width="19" height="22" viewBox="0 0 19 22" fill="none" xmlns="http://www.w3.org/2000/svg">
<circle cx="9.42852" cy="6.28558" r="5.81558" stroke="#7C7971" stroke-width="0.94"/>
<mask id="path-2-inside-1_1_653" fill="white">
<path d="M9.42871 13.8281C14.6357 13.8282 18.8564 17.2054 18.8564 21.371C18.8564 21.395 18.8563 21.4189 18.8559 21.4429C18.8513 21.7595 18.5806 21.999 18.2639 21.999H18.1865C17.8533 21.999 17.5996 21.7043 17.5996 21.371C17.5996 18.147 14.2177 15.085 9.42871 15.0849C4.63958 15.0849 1.25684 18.1469 1.25684 21.371C1.25686 21.7043 1.00318 21.999 0.66993 21.999H0.592522C0.275859 21.999 0.005104 21.7595 0.000524828 21.4429C0.00017901 21.4189 1.05847e-06 21.395 0 21.371C0 17.2053 4.22157 13.8281 9.42871 13.8281Z"/>
</mask>
<path d="M9.42871 13.8281L9.42874 12.8881H9.42871V13.8281ZM18.8564 21.371L19.7964 21.3711V21.371H18.8564ZM17.5996 21.371L18.5396 21.3711V21.371H17.5996ZM9.42871 15.0849L9.42874 14.1449H9.42871V15.0849ZM1.25684 21.371H0.316836V21.3711L1.25684 21.371ZM0 21.371H-0.94V21.3711L0 21.371ZM18.8559 21.4429L17.916 21.4293L18.8559 21.4429ZM9.42871 13.8281L9.42868 14.7681C14.323 14.7682 17.9164 17.9094 17.9164 21.371H18.8564H19.7964C19.7964 16.5015 14.9484 12.8882 9.42874 12.8881L9.42871 13.8281ZM18.8564 21.371L17.9164 21.371C17.9164 21.3903 17.9163 21.4098 17.916 21.4293L18.8559 21.4429L19.7958 21.4565C19.7962 21.4281 19.7964 21.3997 19.7964 21.3711L18.8564 21.371ZM18.2639 21.999V21.059H18.1865V21.999V22.939H18.2639V21.999ZM17.5996 21.371H18.5396C18.5396 17.4516 14.5411 14.1451 9.42874 14.1449L9.42871 15.0849L9.42868 16.0249C13.8942 16.025 16.6596 18.8423 16.6596 21.371H17.5996ZM9.42871 15.0849V14.1449C4.3163 14.1449 0.316836 17.4515 0.316836 21.371H1.25684H2.19684C2.19684 18.8423 4.96286 16.0249 9.42871 16.0249V15.0849ZM0.66993 21.999V21.059H0.592522V21.999V22.939H0.66993V21.999ZM0.000524828 21.4429L0.940427 21.4293C0.940144 21.4098 0.940001 21.3903 0.94 21.371L0 21.371L-0.94 21.3711C-0.939999 21.3997 -0.939786 21.4281 -0.939377 21.4565L0.000524828 21.4429ZM0 21.371H0.94C0.94 17.9094 4.53413 14.7681 9.42871 14.7681V13.8281V12.8881C3.909 12.8881 -0.94 16.5013 -0.94 21.371H0ZM0.592522 21.999V21.059C0.730211 21.059 0.936743 21.1746 0.940427 21.4293L0.000524828 21.4429L-0.939377 21.4565C-0.926535 22.3444 -0.178494 22.939 0.592522 22.939V21.999ZM18.1865 21.999V21.059C18.31 21.059 18.4079 21.1165 18.4629 21.1769C18.5141 21.233 18.5396 21.3013 18.5396 21.3711L17.5996 21.371L16.6596 21.371C16.6596 22.1392 17.2537 22.939 18.1865 22.939V21.999ZM1.25684 21.371L0.316836 21.3711C0.316832 21.3013 0.342361 21.233 0.393509 21.1769C0.448542 21.1165 0.546453 21.059 0.66993 21.059V21.999V22.939C1.60276 22.939 2.19688 22.1392 2.19684 21.371L1.25684 21.371ZM18.8559 21.4429L17.916 21.4293C17.9197 21.1746 18.1262 21.059 18.2639 21.059V21.999V22.939C19.0349 22.939 19.783 22.3444 19.7958 21.4565L18.8559 21.4429Z" fill="#7C7971" mask="url(#path-2-inside-1_1_653)"/>
</svg>
