<svg width="26" height="23" viewBox="0 0 26 23" fill="none" xmlns="http://www.w3.org/2000/svg">
<path d="M12.981 1.85352C13.4673 0.708482 15.0903 0.708446 15.5767 1.85352L17.4692 6.31055C17.5371 6.47045 17.6878 6.57955 17.8608 6.59473L22.6851 7.01855C23.924 7.12752 24.4252 8.67 23.4868 9.48633L19.8325 12.6641C19.7014 12.7781 19.6441 12.9557 19.6831 13.125L20.772 17.8428C21.0516 19.055 19.7379 20.0097 18.6714 19.3691L14.52 16.876C14.3711 16.7866 14.1855 16.7866 14.0366 16.876L9.88525 19.3691C8.81877 20.0096 7.50604 19.055 7.78564 17.8428L8.87354 13.125C8.91258 12.9557 8.85521 12.7781 8.72412 12.6641L5.06982 9.48633C4.13154 8.66988 4.63339 7.12722 5.87256 7.01855L10.6958 6.59473C10.8688 6.57955 11.0195 6.47041 11.0874 6.31055L12.981 1.85352Z" stroke="#7C7971" stroke-width="0.94"/>
<path d="M0.469971 2.69366H7.20568" stroke="#7C7971" stroke-width="0.94" stroke-linecap="round"/>
<path d="M0.469971 18.1866H4.5114" stroke="#7C7971" stroke-width="0.94" stroke-linecap="round"/>
<path d="M0.469971 10.1037H2.49068" stroke="#7C7971" stroke-width="0.94" stroke-linecap="round"/>
</svg>
