<svg width="31" height="27" viewBox="0 0 31 27" fill="none" xmlns="http://www.w3.org/2000/svg">
<path d="M1.44238 7.21063L27.4008 7.21063" stroke="#2F3027" stroke-width="1.73056" stroke-linecap="round"/>
<path d="M22.0645 0C25.8079 0 28.8428 3.03492 28.8428 6.77832V10.6709C28.8428 11.1488 28.4554 11.5361 27.9775 11.5361C27.4997 11.5361 27.1123 11.1488 27.1123 10.6709V6.77832C27.1123 3.99068 24.8521 1.73047 22.0645 1.73047H6.77832C3.99068 1.73047 1.73047 3.99068 1.73047 6.77832V17.7383C1.7305 20.5259 3.9907 22.7861 6.77832 22.7861H12.1143C12.5921 22.7861 12.9795 23.1735 12.9795 23.6514C12.9795 24.1292 12.5921 24.5166 12.1143 24.5166H6.77832L6.42969 24.5078C2.96365 24.3324 0.184423 21.5529 0.00878906 18.0869L0 17.7383V6.77832C0 3.15175 2.84817 0.190094 6.42969 0.00878906L6.77832 0H22.0645Z" fill="#2F3027"/>
<path d="M29.2461 13.0562C29.6697 12.8581 30.1318 13.1191 30.2852 13.6011C30.4388 14.0797 30.2453 14.6308 29.8311 14.8228V14.8218C27.9864 15.6848 26.4074 17.2357 25.0635 19.1431C23.7198 21.0501 22.6133 23.3098 21.7139 25.5864C21.5273 26.0581 21.0488 26.2725 20.6406 26.0396H20.6396C20.5295 25.9758 20.4386 25.8871 20.3672 25.7837L17.2783 21.7192C16.9858 21.3355 17.0059 20.7419 17.3252 20.3872C17.4865 20.208 17.696 20.1218 17.9053 20.1323C18.1142 20.1429 18.3164 20.2494 18.4648 20.4429V20.4438L20.793 23.5054C22.7282 19.0151 25.4455 14.8403 29.2461 13.0562Z" fill="#2F3027" stroke="#2F3027" stroke-width="0.144213"/>
</svg>
