<svg width="22" height="32" viewBox="0 0 22 32" fill="none" xmlns="http://www.w3.org/2000/svg">
<path d="M0.865234 7.97564C0.865234 1.96889 5.25433 0.745288 7.44888 0.884333H14.8428C14.8428 0.884333 21.0551 0.0975745 21.0551 8.63943V27.0369C21.0551 28.1389 19.81 28.7792 18.9126 28.1395L16.7624 26.6068C16.2058 26.2101 15.4409 26.2898 14.978 26.7928L12.1264 29.8916C11.5321 30.5373 10.4903 30.4569 10.0023 29.7276L8.11613 26.9094C7.73518 26.3402 6.98947 26.1446 6.37816 26.4535L2.83223 28.2453C1.93057 28.701 0.865234 28.0484 0.865234 27.0382V7.97564Z" stroke="#2F3027" stroke-width="1.73056"/>
<path d="M5.5249 10.1932H14.8433" stroke="#2F3027" stroke-width="1.73056" stroke-linecap="round"/>
<path d="M5.5249 16.0172H9.73112" stroke="#2F3027" stroke-width="1.73056" stroke-linecap="round"/>
</svg>
