<svg width="20" height="13" viewBox="0 0 20 13" fill="none" xmlns="http://www.w3.org/2000/svg">
<rect x="0.307287" y="0.307287" width="14.7498" height="11.6769" rx="3.38016" stroke="#7C7971" stroke-width="0.614575"/>
<path d="M1.53625 7.37564C1.70588 7.37564 1.84338 7.51315 1.84338 7.68277V8.60416C1.84344 9.62222 2.66911 10.4477 3.68713 10.4479H4.65735C4.82697 10.4479 4.96448 10.5854 4.96448 10.755C4.96448 10.9247 4.82697 11.0622 4.65735 11.0622H3.68713C2.41442 11.0619 1.36757 10.0947 1.24182 8.85513L1.22913 8.60416V7.68277C1.22913 7.51315 1.36663 7.37564 1.53625 7.37564ZM14.2301 8.60416L14.2174 8.85513C14.0917 10.0949 13.044 11.0622 11.7711 11.0622H10.8029C10.6332 11.0622 10.4957 10.9247 10.4957 10.755C10.4957 10.5854 10.6332 10.4479 10.8029 10.4479H11.7711C12.7893 10.4479 13.6148 9.62237 13.6149 8.60416V7.68326C13.6149 7.51337 13.7526 7.37564 13.9225 7.37564C14.0924 7.37564 14.2301 7.51337 14.2301 7.68326V8.60416ZM11.7711 1.22916C13.1286 1.22916 14.2299 2.32969 14.2301 3.68716V4.60904C14.2301 4.77893 14.0924 4.91666 13.9225 4.91666C13.7526 4.91666 13.6149 4.77893 13.6149 4.60904V3.68716C13.6146 2.66911 12.7892 1.84341 11.7711 1.84341H10.8029C10.6332 1.84341 10.4957 1.70591 10.4957 1.53629C10.4957 1.36666 10.6332 1.22916 10.8029 1.22916H11.7711ZM4.96448 1.53629C4.96448 1.70591 4.82697 1.84341 4.65735 1.84341H3.68713C2.66923 1.84366 1.84363 2.66926 1.84338 3.68716V4.60953C1.84338 4.77915 1.70588 4.91666 1.53625 4.91666C1.36663 4.91666 1.22913 4.77915 1.22913 4.60953V3.68716C1.22937 2.32984 2.32981 1.2294 3.68713 1.22916H4.65735C4.82697 1.22916 4.96448 1.36666 4.96448 1.53629Z" fill="#7C7971"/>
<circle cx="16.9895" cy="6.14562" r="2.15101" stroke="#7C7971" stroke-width="0.614575"/>
</svg>
