<svg width="15" height="16" viewBox="0 0 15 16" fill="none" xmlns="http://www.w3.org/2000/svg">
<circle cx="5.53144" cy="3.68745" r="3.38016" stroke="#7C7971" stroke-width="0.614575"/>
<path d="M5.22363 8.91177C6.61577 8.91177 7.8623 9.27718 8.75098 9.8522C9.64252 10.4291 10.1405 11.1898 10.1406 11.984C10.1406 12.7784 9.64271 13.5398 8.75098 14.1169C7.86231 14.6919 6.61575 15.0573 5.22363 15.0573C3.83179 15.0572 2.58586 14.6917 1.69727 14.1169C0.805528 13.5398 0.307617 12.7784 0.307617 11.984C0.307734 11.1898 0.805632 10.4291 1.69727 9.8522C2.58587 9.27729 3.83169 8.91182 5.22363 8.91177Z" stroke="#7C7971" stroke-width="0.614575"/>
<path d="M11.3569 9.44937C11.1971 9.25871 11.3505 8.9805 11.5934 9.03455C13.2811 9.41015 14.4936 10.4442 14.4936 11.664C14.4933 12.836 13.3738 13.8371 11.789 14.2472C11.5998 14.2962 11.4213 14.1487 11.4213 13.9533C11.4213 13.8067 11.524 13.681 11.6657 13.6436C12.1393 13.5184 12.5581 13.3372 12.8999 13.1161C13.571 12.6819 13.8792 12.1545 13.8794 11.664C13.8793 11.1734 13.5711 10.6452 12.8999 10.2109C12.5157 9.96238 12.0344 9.76344 11.4871 9.63854C11.4488 9.6298 11.4213 9.59591 11.4213 9.55662C11.4213 9.53704 11.4144 9.51808 11.4019 9.50307L11.3569 9.44937Z" fill="#7C7971"/>
<path d="M10.8577 1.84784C12.4621 1.92922 13.7385 3.25635 13.7385 4.88104L13.7336 5.03729C13.6522 6.64162 12.326 7.91808 10.7014 7.91815L10.5452 7.91327C10.5145 7.91171 10.4839 7.90955 10.4535 7.90686C10.2322 7.88726 10.0444 7.74484 9.93419 7.55192L9.85125 7.4067C9.83946 7.38604 9.83325 7.36267 9.83325 7.33889C9.83325 7.24295 9.92967 7.17665 10.0217 7.20386C10.2373 7.26763 10.4651 7.30292 10.7014 7.30292C12.039 7.30284 13.1231 6.21858 13.1233 4.88104C13.1233 3.54337 12.0391 2.45827 10.7014 2.45819C10.5456 2.45819 10.3935 2.47356 10.246 2.50231C10.0425 2.542 9.83325 2.39847 9.83325 2.19114C9.83325 2.06046 9.91882 1.94384 10.0464 1.91561C10.2574 1.86893 10.4765 1.84393 10.7014 1.84393L10.8577 1.84784Z" fill="#7C7971"/>
</svg>
