<svg width="8" height="9" viewBox="0 0 8 9" fill="none" xmlns="http://www.w3.org/2000/svg">
<path d="M5.00659 2.19842H6.8977L6.68758 0.307312" stroke="#7C7971" stroke-width="0.614575" stroke-linecap="round"/>
<path d="M2.91023 6.46993L1.08356 5.98047L0.797069 7.86153" stroke="#7C7971" stroke-width="0.614575" stroke-linecap="round"/>
<path d="M7.0265 4.69894C7.2491 4.63292 7.46444 4.81742 7.40614 5.04217C6.98395 6.66976 5.50605 7.87152 3.74632 7.87152L3.55198 7.86664C2.64732 7.82084 1.82624 7.45755 1.19864 6.88559C1.02674 6.72894 1.10644 6.45636 1.32935 6.39002C1.4425 6.35634 1.56414 6.38821 1.65269 6.46629C2.21093 6.95851 2.94364 7.25725 3.74632 7.25726C5.20127 7.25726 6.42594 6.276 6.79736 4.93932C6.82895 4.82565 6.91339 4.73248 7.0265 4.69894ZM3.94065 0.311951C4.9967 0.365402 5.93774 0.852739 6.59096 1.59857C6.73367 1.76151 6.64736 2.0081 6.43973 2.06977C6.31469 2.10692 6.18073 2.06304 6.09325 1.96629C5.51386 1.32557 4.67805 0.921328 3.74632 0.921326C2.166 0.921357 0.855834 2.07912 0.617307 3.5925C0.597094 3.72074 0.509326 3.83039 0.384884 3.86739C0.178654 3.92871 -0.0270638 3.77025 0.00292527 3.5572C0.261471 1.7204 1.83818 0.307099 3.74632 0.307068L3.94065 0.311951Z" fill="#7C7971"/>
</svg>
