<svg width="75" height="47" viewBox="0 0 75 47" fill="none" xmlns="http://www.w3.org/2000/svg">
<path d="M75 0H0V46.5187H75V0Z" fill="#314190"/>
<path fill-rule="evenodd" clip-rule="evenodd" d="M23.4113 16.5222V28.4328H19.9959V30.2378H21.3403V36.2112H23.4113V37.8414H12.7369V16.5222H7.13626V7.55225H28.5253V16.5222H23.4113Z" fill="#FEFEFE"/>
<path fill-rule="evenodd" clip-rule="evenodd" d="M29.6822 7.55225H35.8847V16.5222H29.6822V7.55225Z" fill="#FEFEFE"/>
<mask id="mask0_1_2055" style="mask-type:luminance" maskUnits="userSpaceOnUse" x="29" y="7" width="7" height="10">
<path d="M29.6821 7.55176H35.8846V16.5218H29.6821V7.55176Z" fill="white"/>
</mask>
<g mask="url(#mask0_1_2055)">
<path d="M35.9184 7.80273H29.6484V8.25563H35.9184V7.80273Z" fill="#314190"/>
<path d="M35.9184 8.47021H29.6484V8.92311H35.9184V8.47021Z" fill="#314190"/>
<path d="M35.9184 9.13892H29.6484V9.59181H35.9184V9.13892Z" fill="#314190"/>
<path d="M35.9184 9.80762H29.6484V10.2605H35.9184V9.80762Z" fill="#314190"/>
<path d="M35.9184 10.4761H29.6484V10.929H35.9184V10.4761Z" fill="#314190"/>
<path d="M35.9184 11.1448H29.6484V11.5977H35.9184V11.1448Z" fill="#314190"/>
<path d="M35.9184 11.8123H29.6484V12.2652H35.9184V11.8123Z" fill="#314190"/>
<path d="M35.9184 12.481H29.6484V12.9339H35.9184V12.481Z" fill="#314190"/>
<path d="M35.9184 13.1494H29.6484V13.6023H35.9184V13.1494Z" fill="#314190"/>
<path d="M35.9184 13.8181H29.6484V14.271H35.9184V13.8181Z" fill="#314190"/>
<path d="M35.9184 14.4856H29.6484V14.9385H35.9184V14.4856Z" fill="#314190"/>
<path d="M35.9184 15.1543H29.6484V15.6072H35.9184V15.1543Z" fill="#314190"/>
<path d="M35.9184 15.8228H29.6484V16.2757H35.9184V15.8228Z" fill="#314190"/>
</g>
<path fill-rule="evenodd" clip-rule="evenodd" d="M24.5156 17.6086H35.8565V27.9088H24.5156V17.6086Z" fill="#FEFEFE"/>
<mask id="mask1_1_2055" style="mask-type:luminance" maskUnits="userSpaceOnUse" x="24" y="17" width="12" height="11">
<path d="M24.5156 17.6086H35.8565V27.9088H24.5156V17.6086Z" fill="white"/>
</mask>
<g mask="url(#mask1_1_2055)">
<path d="M35.9184 17.8176H24.4537V18.276H35.9184V17.8176Z" fill="#314190"/>
<path d="M35.9184 18.4937H24.4537V18.952H35.9184V18.4937Z" fill="#314190"/>
<path d="M35.9184 19.1697H24.4537V19.6281H35.9184V19.1697Z" fill="#314190"/>
<path d="M35.9184 19.8457H24.4537V20.3041H35.9184V19.8457Z" fill="#314190"/>
<path d="M35.9184 20.5203H24.4537V20.9787H35.9184V20.5203Z" fill="#314190"/>
<path d="M35.9184 21.1963H24.4537V21.6547H35.9184V21.1963Z" fill="#314190"/>
<path d="M35.9184 21.8723H24.4537V22.3307H35.9184V21.8723Z" fill="#314190"/>
<path d="M35.9184 22.5471H24.4537V23.0055H35.9184V22.5471Z" fill="#314190"/>
<path d="M35.9184 23.2231H24.4537V23.6815H35.9184V23.2231Z" fill="#314190"/>
<path d="M35.9184 23.8992H24.4537V24.3576H35.9184V23.8992Z" fill="#314190"/>
<path d="M35.9184 24.574H24.4537V25.0324H35.9184V24.574Z" fill="#314190"/>
<path d="M35.9184 25.25H24.4537V25.7084H35.9184V25.25Z" fill="#314190"/>
<path d="M35.9184 25.926H24.4537V26.3844H35.9184V25.926Z" fill="#314190"/>
<path d="M35.9184 26.6006H24.4537V27.059H35.9184V26.6006Z" fill="#314190"/>
<path d="M35.9184 27.2778H24.4537V27.7362H35.9184V27.2778Z" fill="#314190"/>
</g>
<path fill-rule="evenodd" clip-rule="evenodd" d="M25.3612 28.918H35.8565V37.8418H24.5156V30.2382H25.3612V28.918Z" fill="#FEFEFE"/>
<mask id="mask2_1_2055" style="mask-type:luminance" maskUnits="userSpaceOnUse" x="24" y="28" width="12" height="10">
<path d="M25.3611 28.9177H35.8565V37.8416H24.5155V30.2379H25.3611V28.9177Z" fill="white"/>
</mask>
<g mask="url(#mask2_1_2055)">
<path d="M35.9184 29.167H24.4537V29.6188H35.9184V29.167Z" fill="#314190"/>
<path d="M35.9184 29.8342H24.4537V30.286H35.9184V29.8342Z" fill="#314190"/>
<path d="M35.9184 30.5017H24.4537V30.9535H35.9184V30.5017Z" fill="#314190"/>
<path d="M35.9184 31.1692H24.4537V31.621H35.9184V31.1692Z" fill="#314190"/>
<path d="M35.9184 31.8367H24.4537V32.2885H35.9184V31.8367Z" fill="#314190"/>
<path d="M35.9184 32.5039H24.4537V32.9557H35.9184V32.5039Z" fill="#314190"/>
<path d="M35.9184 33.1714H24.4537V33.6232H35.9184V33.1714Z" fill="#314190"/>
<path d="M35.9184 33.8376H24.4537V34.2894H35.9184V33.8376Z" fill="#314190"/>
<path d="M35.9184 34.5049H24.4537V34.9567H35.9184V34.5049Z" fill="#314190"/>
<path d="M35.9184 35.1711H24.4537V35.6229H35.9184V35.1711Z" fill="#314190"/>
<path d="M35.9184 35.8386H24.4537V36.2904H35.9184V35.8386Z" fill="#314190"/>
<path d="M35.9184 36.5061H24.4537V36.9579H35.9184V36.5061Z" fill="#314190"/>
<path d="M35.9184 37.1733H24.4537V37.6251H35.9184V37.1733Z" fill="#314190"/>
</g>
<path d="M66.2494 36.1782H64.3969V31.9032H63.6815C63.6919 32.9244 63.6187 33.6049 63.4931 34.4854C63.315 35.7396 62.5884 36.2035 62.2819 36.2343C61.7156 36.2926 61.6331 36.3266 61.2169 36.2145L61.2431 34.6997C61.8619 34.7041 62.0803 34.2512 62.1469 33.5367C62.25 32.4374 62.2884 31.4998 62.2481 30.4126L66.2494 30.4192V36.1782Z" fill="#FEFEFE"/>
<path d="M57.465 32.2815L55.7231 32.0968C55.7868 31.7275 55.8975 31.4615 56.0334 31.2647C56.5706 30.4886 57.3665 30.3193 58.1503 30.3193C58.6809 30.3193 58.9968 30.3215 59.3193 30.3963C59.6409 30.4699 59.909 30.626 60.1247 30.8602C60.2747 31.024 60.4359 31.2372 60.5231 31.534C60.6103 31.8319 60.6122 32.1342 60.6122 32.4057V34.9505C60.6122 35.2221 60.6262 35.4353 60.6534 35.5881C60.6815 35.742 60.6984 35.952 60.7912 36.1905L58.9903 36.1773C58.9893 36.1762 58.934 35.4771 58.9256 35.4122C58.694 35.6903 58.5178 35.9542 58.2872 36.0718C57.9731 36.2312 57.6084 36.3103 57.194 36.3103C56.6418 36.3103 56.2744 36.1663 55.9884 35.8475C55.7025 35.5287 55.559 35.1352 55.559 34.6691C55.559 34.2316 55.6612 33.87 55.8684 33.5874C56.2293 33.0939 56.8753 32.7091 58.1465 32.5355C58.3509 32.5069 58.529 32.5047 58.8234 32.4508C58.8234 32.1793 58.8075 31.9594 58.7175 31.8506C58.4503 31.5274 57.8859 31.645 57.7284 31.8022C57.6244 31.9078 57.5353 32.0298 57.465 32.2815ZM58.8093 33.4863C58.5487 33.5545 58.4259 33.5699 58.1606 33.6567C57.8634 33.7534 57.4968 33.9414 57.4968 34.4152C57.4968 34.8472 57.6853 34.978 58.0237 34.978C58.6622 34.978 58.8093 34.568 58.8093 33.8414V33.4863Z" fill="#FEFEFE"/>
<path d="M54.7509 36.1777H52.8581V33.9429H51.7584V36.1777H49.8862V30.4187H51.7594V32.4523H52.8581V30.4187H54.7509V36.1777Z" fill="#FEFEFE"/>
<path d="M48.8194 36.1777H46.9266L46.9463 33.3669L45.7847 35.7853L45.7781 36.1777H43.8835V30.4187H45.765V33.1427L46.9378 30.8342L46.936 30.4187H48.8194V36.1777Z" fill="#FEFEFE"/>
<path d="M42.8259 36.1777H41.1244V31.9467L40.005 36.1777H38.9259L37.8441 31.9093V36.1777H36.4088V30.4187H38.8819L39.6441 33.4845L40.4025 30.4187H42.8259V36.1777Z" fill="#FEFEFE"/>
<path d="M30.5972 37.8324V30.419H32.2884V31.2676C32.5312 30.9081 32.7534 30.6619 32.9587 30.541C33.6872 30.1123 34.6331 30.2255 35.1628 31.0961C35.5209 31.6853 35.5791 32.5076 35.5791 33.3749C35.5791 34.3356 35.3344 35.0304 34.9237 35.5129C34.1569 36.4132 32.9981 36.0472 32.4637 35.3887L32.4384 37.8324H30.5972ZM32.4141 33.3166C32.4141 33.775 32.4187 34.3686 32.5837 34.5874C32.8406 34.9292 33.2353 34.838 33.4612 34.5511C33.6197 34.351 33.72 33.7772 33.72 33.2682C33.72 32.7989 33.69 32.247 33.5419 32.0239C33.2278 31.5501 32.8669 31.571 32.5509 32.0096C32.3916 32.2305 32.4141 32.8186 32.4141 33.3166Z" fill="#FEFEFE"/>
<path d="M29.7009 33.8468H26.3709C26.4028 34.1997 26.4778 34.4635 26.5959 34.6383C26.7628 34.8867 26.9794 35.012 27.2466 35.012C27.5766 35.012 27.9094 34.6449 27.9825 34.2382L29.7122 34.3426C29.445 35.2869 29.0334 35.6826 28.6678 35.9321C28.3022 36.1839 27.7763 36.3103 27.0919 36.3103C26.4966 36.3103 26.0363 36.119 25.695 35.9024C25.3547 35.6881 25.065 35.4298 24.8409 34.9615C24.6169 34.4932 24.5053 33.9414 24.5053 33.3082C24.5053 32.4079 24.7753 31.7065 25.2244 31.1492C25.6725 30.593 26.2659 30.3501 27.0478 30.3314C27.69 30.3149 28.1644 30.4952 28.5356 30.7447C28.9078 30.9942 29.2153 31.2701 29.4103 31.7461C29.6044 32.2188 29.7009 32.8366 29.7009 33.5973V33.8468ZM27.9272 32.741C27.8944 32.3111 27.7913 32.0561 27.646 31.8714C27.3263 31.4636 26.8219 31.5691 26.5584 32.0143C26.4553 32.188 26.4 32.3947 26.3709 32.741H27.9272Z" fill="#FEFEFE"/>
<path d="M40.5075 26.4215L41.5687 26.56C41.5097 26.8206 41.415 27.0459 41.2809 27.2383C41.1478 27.4285 40.9762 27.5769 40.7681 27.6824C40.5619 27.7879 40.2975 27.8407 39.9769 27.8407C39.6675 27.8407 39.4097 27.8066 39.2034 27.7396C38.9991 27.6714 38.8219 27.5615 38.6728 27.4098C38.5247 27.2592 38.4084 27.08 38.324 26.8755C38.2406 26.6711 38.1984 26.4006 38.1984 26.0621C38.1984 25.7103 38.249 25.4157 38.3512 25.1816C38.4262 25.009 38.5294 24.8551 38.6597 24.7188C38.79 24.5814 38.9231 24.4791 39.06 24.4132C39.2784 24.3076 39.5578 24.2549 39.8972 24.2549C40.3744 24.2549 40.7362 24.3549 40.9865 24.5539C41.2369 24.755 41.4112 25.0464 41.5125 25.43L40.4625 25.596C40.4297 25.4487 40.3697 25.3388 40.2825 25.264C40.1953 25.1904 40.0781 25.153 39.9309 25.153C39.7472 25.153 39.5972 25.231 39.4819 25.386C39.3675 25.5432 39.3103 25.7785 39.3103 26.0951C39.3103 26.3776 39.3675 26.5908 39.4809 26.737C39.5944 26.8832 39.7387 26.9558 39.914 26.9558C40.0603 26.9558 40.184 26.9118 40.2834 26.825C40.3837 26.737 40.4578 26.6029 40.5075 26.4215Z" fill="#FEFEFE"/>
<path d="M45.3168 26.3754H43.0743C43.095 26.5853 43.1428 26.7425 43.2206 26.8459C43.3284 26.9943 43.47 27.0679 43.6443 27.0679C43.754 27.0679 43.859 27.036 43.9575 26.9723C44.0184 26.9316 44.084 26.8601 44.1534 26.7579L45.255 26.8766C45.0862 27.2207 44.8828 27.468 44.6447 27.6164C44.4075 27.7659 44.0653 27.8407 43.6209 27.8407C43.2337 27.8407 42.9309 27.7769 42.7087 27.6483C42.4875 27.5208 42.3037 27.3174 42.1584 27.0382C42.0131 26.759 41.94 26.4314 41.94 26.0544C41.94 25.5179 42.0862 25.0837 42.3778 24.7528C42.6693 24.4209 43.0725 24.2549 43.5872 24.2549C44.0043 24.2549 44.3334 24.3296 44.5743 24.478C44.8162 24.6264 45.0009 24.8419 45.1275 25.1244C45.254 25.4058 45.3168 25.7741 45.3168 26.2259V26.3754ZM44.1815 25.7477C44.16 25.4927 44.1009 25.3091 44.0062 25.1992C43.9115 25.0892 43.7878 25.0343 43.634 25.0343C43.4559 25.0343 43.3134 25.1178 43.2065 25.2838C43.139 25.3871 43.0959 25.5421 43.0772 25.7477H44.1815Z" fill="#FEFEFE"/>
<path d="M48.2831 25.2922H47.4741V27.7622H46.3556V25.2922H45.5466V24.3347H48.2831V25.2922Z" fill="#FEFEFE"/>
<path d="M49.8384 25.556H50.3484C51.2109 25.556 51.6412 25.9265 51.6412 26.6663C51.6412 27.3973 51.2222 27.7622 50.3822 27.7622H48.72V24.3347H49.8384V25.556ZM49.8384 26.9565H50.2022C50.294 26.9565 50.3681 26.9312 50.4262 26.8817C50.4834 26.8322 50.5125 26.7608 50.5125 26.6663C50.5125 26.4596 50.4094 26.3552 50.2022 26.3552H49.8384V26.9565Z" fill="#FEFEFE"/>
<path d="M56.5613 26.9826H55.1531L54.9506 27.762H53.6822L55.1963 23.033H56.5566L58.0641 27.762H56.7628L56.5613 26.9826ZM56.2978 25.9592L55.8591 24.2597L55.4175 25.9592H56.2978Z" fill="#FEFEFE"/>
<path d="M60.9797 25.1904C61.4625 25.3432 61.7034 25.7004 61.7034 26.2611C61.7034 26.7238 61.5525 27.102 61.2497 27.3977C60.9468 27.6934 60.5193 27.8407 59.9681 27.8407C59.024 27.8407 58.4381 27.3757 58.2094 26.4457L59.3831 26.3424C59.4487 26.6722 59.6362 26.8371 59.9447 26.8371C60.1162 26.8371 60.2465 26.7865 60.3347 26.6854C60.4237 26.5842 60.4678 26.4435 60.4678 26.2622C60.4678 26.0874 60.4125 25.9467 60.3009 25.8378C60.1894 25.729 60.0365 25.6751 59.8444 25.6751H59.5068V24.8298H59.7731C59.9315 24.8298 60.0572 24.7814 60.1462 24.6825C60.2372 24.5847 60.2822 24.4484 60.2822 24.2747C60.2822 24.0197 60.1462 23.8921 59.8743 23.8921C59.5922 23.8921 59.429 24.0394 59.3831 24.334L58.2712 24.1823C58.4522 23.3634 58.994 22.9534 59.8959 22.9534C60.3956 22.9534 60.7875 23.0677 61.0706 23.2952C61.3547 23.5228 61.4962 23.8295 61.4962 24.2142C61.4962 24.6792 61.3237 25.0035 60.9797 25.1904Z" fill="#FEFEFE"/>
<path d="M65.0016 25.8268L66.0919 26.2127C66.0188 26.5721 65.9034 26.8722 65.745 27.1119C65.5875 27.3537 65.3934 27.5351 65.1591 27.6571C64.9256 27.7791 64.6294 27.8407 64.2684 27.8407C63.8306 27.8407 63.4734 27.7659 63.195 27.6175C62.9184 27.468 62.6794 27.2042 62.4778 26.8294C62.2772 26.4545 62.1759 25.972 62.1759 25.386C62.1759 24.6045 62.3531 24.0043 62.7066 23.5832C63.0619 23.1644 63.5625 22.9534 64.2103 22.9534C64.7175 22.9534 65.1159 23.0743 65.4066 23.315C65.6953 23.5558 65.9119 23.9262 66.0525 24.4253L64.9566 24.71C64.9181 24.5671 64.8778 24.4627 64.8356 24.3967C64.7653 24.2857 64.6809 24.1999 64.5806 24.1406C64.4794 24.0801 64.3669 24.0504 64.2422 24.0504C63.96 24.0504 63.7434 24.1834 63.5934 24.4484C63.48 24.6451 63.4228 24.9562 63.4228 25.3772C63.4228 25.9016 63.4903 26.2589 63.6263 26.4545C63.7622 26.648 63.9525 26.7447 64.1972 26.7447C64.4353 26.7447 64.6153 26.6667 64.7372 26.5095C64.8581 26.3523 64.9463 26.1247 65.0016 25.8268Z" fill="#FEFEFE"/>
</svg>
